<svg width="60" height="60" viewBox="0 0 60 60" fill="none" xmlns="http://www.w3.org/2000/svg">
<g clip-path="url(#clip0_156_25)">
<path d="M52.9687 0H7.03125C3.16406 0 0 3.16406 0 7.03125V52.9688C0 56.8359 3.16406 60 7.03125 60H31.5562V37.0078H24.375V27.75H31.5562V21.0223C31.5562 13.4684 35.2535 8.97656 43.7613 8.97656H50.8441V18.2367H45.4816C42.1687 18.2367 41.9484 19.5305 41.9484 21.9445L41.9367 27.75H50.4281L49.2539 37.0078H41.9367V60H52.9676C56.8348 60 59.9988 56.8359 59.9988 52.9688V7.03125C59.9988 3.16406 56.8348 0 52.9676 0H52.9687Z" fill="#786552"/>
</g>
<defs>
<clipPath id="clip0_156_25">
<rect width="60" height="60" fill="white"/>
</clipPath>
</defs>
</svg>
