<svg width="59" height="60" viewBox="0 0 59 60" fill="none" xmlns="http://www.w3.org/2000/svg">
<path d="M29.5209 14.6252C21.1357 14.6252 14.3814 21.4939 14.3814 30.0213C14.3814 38.5486 21.1357 45.4173 29.5209 45.4173C37.9062 45.4173 44.6604 38.5486 44.6604 30.0213C44.6604 21.4939 37.9062 14.6252 29.5209 14.6252ZM29.5209 40.0159C24.105 40.0159 19.6928 35.529 19.6928 30.0213C19.6928 24.5136 24.105 20.0266 29.5209 20.0266C34.9368 20.0266 39.349 24.5136 39.349 30.0213C39.349 35.529 34.9159 40.0159 29.5209 40.0159ZM48.8007 13.9872C48.8007 15.9862 47.2115 17.5811 45.2668 17.5811C43.3221 17.5811 41.7329 15.9649 41.7329 13.9872C41.7329 12.0096 43.3221 10.3934 45.2668 10.3934C47.2115 10.3934 48.8007 12.0096 48.8007 13.9872ZM58.817 17.6236C58.587 12.8177 57.5206 8.56459 54.0494 5.05582C50.5991 1.54705 46.4169 0.441255 41.691 0.207337C36.8188 -0.0691122 22.2021 -0.0691122 17.3299 0.207337C12.6249 0.441255 8.42185 1.52578 4.97156 5.03456C1.50035 8.54333 0.4339 12.7964 0.203881 17.6236C-0.0679603 22.5784 -0.0679603 37.4216 0.203881 42.3764C0.4339 47.1824 1.50035 51.4354 4.97156 54.9442C8.44276 58.4529 12.604 59.5587 17.3299 59.7927C22.2021 60.0691 36.7979 60.0691 41.6701 59.7927C46.396 59.5587 50.5782 58.4742 54.0284 54.9442C57.4787 51.4354 58.5661 47.1824 58.7961 42.3764C59.068 37.4216 59.068 22.5784 58.7961 17.6236H58.817ZM52.5229 47.6927C51.4982 50.3083 49.5117 52.3498 46.9188 53.3918C43.0293 54.9654 33.8076 54.6039 29.5209 54.6039C25.2342 54.6039 15.9916 54.9442 12.1231 53.3918C9.55104 52.3498 7.54359 50.3296 6.51896 47.6927C4.97156 43.7374 5.32704 34.3594 5.32704 30C5.32704 25.6406 4.99247 16.2414 6.51896 12.3073C7.54359 9.69165 9.53013 7.65019 12.1231 6.60819C16.0125 5.03456 25.2342 5.39607 29.5209 5.39607C33.8076 5.39607 43.0502 5.05582 46.9188 6.60819C49.4908 7.65019 51.4982 9.67039 52.5229 12.3073C54.0703 16.2626 53.7148 25.6406 53.7148 30C53.7148 34.3594 54.0703 43.7586 52.5229 47.6927Z" fill="#786552"/>
</svg>
