<svg width="14" height="18" viewBox="0 0 14 18" fill="none" xmlns="http://www.w3.org/2000/svg">
<g clip-path="url(#clip0_15_301)">
<path d="M7 0C3.13458 0 0 3.13528 0 7.00158C0 9.91851 3.98407 15.1187 5.93932 17.4992C6.48746 18.1661 7.51017 18.1661 8.0583 17.4992C10.0159 15.1187 13.9976 9.91851 13.9976 7.00158C14 3.13528 10.8654 0 7 0ZM7 9C5.51932 9 4.31627 7.79905 4.31627 6.31567C4.31627 4.83228 5.51695 3.63133 7 3.63133C8.48305 3.63133 9.68373 4.83228 9.68373 6.31567C9.68373 7.79905 8.48305 9 7 9Z" fill="#786552"/>
</g>
<defs>
<clipPath id="clip0_15_301">
<rect width="14" height="18" fill="white"/>
</clipPath>
</defs>
</svg>
