<svg width="24" height="24" viewBox="0 0 24 24" fill="none" xmlns="http://www.w3.org/2000/svg">
<g clip-path="url(#clip0_212_3855)">
<path d="M18.5752 24C17.2989 24 15.9341 23.6283 14.5186 22.8949C11.9019 21.5393 10.0769 20.4796 6.79972 17.2022C3.52252 13.9248 2.46293 12.0996 1.10743 9.48279C-1.30183 4.83344 0.863943 2.12166 1.58509 1.40104L2.38488 0.601194C2.77807 0.207971 3.23359 0 3.70193 0C4.21221 0 4.69744 0.241759 5.10636 0.699646C5.85372 1.53677 7.3467 3.7563 7.91115 4.68605C8.53036 5.7061 8.37774 6.96034 7.53135 7.80679L5.97896 9.35929C7.07641 11.2718 8.23502 12.794 9.72043 14.2807C11.207 15.7668 12.7291 16.9249 14.6415 18.0224L16.1939 16.4699C16.682 15.9817 17.3199 15.7126 17.9897 15.7126C18.4499 15.7126 18.9078 15.8431 19.3144 16.0901C20.2441 16.6546 22.464 18.1483 23.3005 18.8951C23.7438 19.2906 23.9855 19.7608 23.9995 20.2548C24.0135 20.7389 23.8055 21.2102 23.3983 21.6168L22.605 22.4102C22.1232 22.8926 20.7794 23.9994 18.5757 23.9994L18.5752 24Z" fill="#786552"/>
</g>
<defs>
<clipPath id="clip0_212_3855">
<rect width="24" height="24" fill="white"/>
</clipPath>
</defs>
</svg>
